<?xml version="1.0" ?>
<!-- Copyright (c) 2016, Laslo Hunhold <dev@frign.de> -->
<svg xmlns="http://www.w3.org/2000/svg" width="101" height="15" version="1.1">
<path style="fill:#222222" d="M 73 0 L 73 15 L 76.5 15 L 76.5 15 L 95.5 15 L 95.5 11.25 L 76.5 11.25 L 76.5 0 L 73 0 z M 97.5 0 C 97.5 0 97.5 0 97.5 0 L 97.5 15 C 97.5 15 97.5 15 97.5 15 L 101 15 C 101 15 101 15 101 15 L 101 0 C 101 0 101 0 101 0 L 97.5 0 z " />
<path style="fill:#1177aa" d="M 0 0 L 0 9.375 L 18.75 9.375 L 18.75 11.25 L 0 11.25 L 0 15 L 22.5 15 L 22.5 5.625 L 3.75 5.625 L 3.75 3.75 L 22.5 3.75 L 22.5 0 L 0 0 z M 24.375 0 L 24.375 3.75 L 33 3.75 L 33 15 L 36.875 15 L 36.875 3.8 L 46.875 3.75 L 46.875 0 L 24.375 0 z M 48.75 0 L 48.75 15 L 52.5 15 L 52.5 9.375 L 67.5 9.375 L 67.5 15 L 71 15 C 71 10 71 0 71 0 L 48.75 0 z M 52.5 3.75 L 67.5 3.75 L 67.5 5.625 L 52.5 5.625 L 52.5 3.75 z " />
</svg>
