<?xml version="1.0"?>
<!-- Copyright (c) 2017, Laslo Hunhold <dev@frign.de> CC BY 4.0 -->
<svg xmlns="http://www.w3.org/2000/svg" width="240" height="40">
<path d="m 220,30 20,0 0,10 -20,0 z m 0,-30 20,0 0,10 -20,0 z m -20,0 0,40 10,0 0,-10 10,0 0,-20 -10,0 0,-10 z m -50,40 0,-40 40,0 0,10 -30,0 0,30 z m -40,-20 20,0 0,-10 -20,0 z m -10,-20 0,40 10,0 0,-10 20,0 0,10 10,0 0,-40 z M 50,0 50,40 90,40 90,0 80,0 80,30 60,30 60,0 Z m -40,10 0,20 10,0 0,-10 10,0 0,-10 z M 0,0 0,40 40,40 40,0 Z" style="fill:#222;fill-rule:evenodd"/>
</svg>
